<svg width="80" height="81" viewBox="0 0 80 81" fill="none" xmlns="http://www.w3.org/2000/svg">
<path d="M70.8535 2.44696C72.3403 3.1 72.8695 4.23001 72.8444 5.83729C72.7939 16.2091 72.8191 26.6061 72.8191 36.9779C72.8191 38.2337 72.5419 38.7108 71.7859 38.7108C71.0299 38.7108 70.7024 38.2086 70.7024 36.9277V5.63644C70.7024 4.55645 70.6771 4.50628 69.5935 4.50628H11.3566C10.3235 4.50628 10.2982 4.55661 10.2982 5.58627C10.2982 16.0334 10.2982 26.4806 10.2982 36.9277C10.2982 37.2542 10.273 37.5806 10.1974 37.9072C10.0463 38.4345 9.64299 38.6857 9.13905 38.6354C8.60986 38.5852 8.28232 38.2588 8.20658 37.7313C8.1815 37.5054 8.18149 37.2542 8.18149 37.0282C8.18149 26.6312 8.20658 16.2091 8.15625 5.81221C8.15625 4.20492 8.66019 3.07476 10.1471 2.42188" fill="black"/>
<path d="M10.2097 69.1754H13.6721V12.1109C13.6721 10.5606 13.8996 10.3105 15.4665 10.3105H65.5586C67.1003 10.3105 67.353 10.5856 67.353 12.1109V68.2002V69.2005H70.8155V68.3502C70.8155 60.7233 70.8155 53.0963 70.8155 45.4694C70.8155 45.1943 70.8155 44.9193 70.8659 44.6443C70.9923 44.0941 71.3462 43.7689 71.9275 43.8189C72.5087 43.869 72.8626 44.2191 72.9131 44.8192C72.9385 45.0193 72.9131 45.2443 72.9131 45.4444V68.3251V69.2005C73.1406 69.2254 73.3175 69.2504 73.4945 69.2504C74.9603 69.3004 75.8449 70.0755 75.9459 71.5009C76.0218 72.4512 76.0218 73.4266 75.9207 74.3767C75.8197 75.7772 74.9098 76.5523 73.4691 76.5523C67.2014 76.5523 60.9335 76.5523 54.6404 76.5523C39.0215 76.5523 23.4024 76.5272 7.78336 76.5772C6.16582 76.5772 4.92742 75.702 5.00331 73.8265C5.02855 73.0514 4.97806 72.2762 5.02855 71.526C5.12969 70.0757 5.98895 69.3004 7.45486 69.2504C7.60649 69.2504 7.78336 69.2504 8.06136 69.2504V68.4003V45.4444C8.06136 45.2194 8.03612 44.9693 8.06136 44.7443C8.13725 44.1941 8.46574 43.844 9.02175 43.794C9.55252 43.744 9.93166 44.0441 10.058 44.5442C10.1338 44.8192 10.1338 45.1444 10.1338 45.4444C10.1338 53.0713 10.1338 60.6983 10.1338 68.3502M57.547 69.1754C57.547 69.1503 57.547 69.1003 57.547 69.0754C55.2218 68.2002 52.8966 67.3499 50.5462 66.4747C49.1055 65.9496 48.8275 65.5495 48.8275 64.0492C48.8275 49.3954 48.8275 34.7417 48.8023 20.088C48.8023 18.9128 49.2319 18.1876 50.3187 17.6875C53.8064 16.087 57.2436 14.4366 60.7062 12.8112C60.9083 12.7111 61.1104 12.5862 61.4138 12.4361H19.4849C19.8893 12.6111 20.0916 12.7362 20.319 12.8112C23.8068 14.4366 27.2945 16.087 30.7823 17.7124C31.7427 18.1625 32.1976 18.8127 32.1976 19.888C32.1723 34.6667 32.1976 49.4204 32.1976 64.1991C32.1976 65.4495 31.8437 65.9496 30.6307 66.3998C29.6197 66.7748 28.6088 67.1499 27.5977 67.5249C26.2331 68.0501 24.8429 68.5503 23.4782 69.0505C23.4782 69.0754 23.5036 69.1254 23.5036 69.1503H57.547V69.1754ZM65.23 13.0612C64.952 13.1862 64.6994 13.2613 64.4971 13.3613C60.2259 15.3618 55.9547 17.3874 51.6835 19.3629C51.1275 19.6128 50.9504 19.888 50.9504 20.5131C50.9758 30.2657 50.9758 40.0181 50.9758 49.7705C50.9758 54.4218 50.9758 59.0978 50.9504 63.774C50.9504 64.2742 51.1275 64.4992 51.5823 64.6492C55.5503 66.0997 59.5182 67.6 63.4862 69.0254C64.017 69.2254 64.6487 69.1754 65.2554 69.2504V13.0612H65.23ZM15.7952 69.3255C16.528 69.1754 17.2104 69.1503 17.8169 68.9253C21.7091 67.5249 25.5507 66.0497 29.4428 64.6492C29.8977 64.4743 30.0999 64.2991 30.0999 63.774C30.0745 49.2954 30.0745 34.7917 30.0999 20.313C30.0999 19.888 29.9988 19.663 29.5692 19.4629C25.1463 17.4123 20.7233 15.3118 16.3005 13.2362C16.1489 13.1613 15.972 13.1362 15.7952 13.0612V69.3255ZM40.5125 71.2759H8.26363C8.06136 71.2759 7.88449 71.2759 7.70762 71.2759C7.32848 71.251 7.15161 71.401 7.15161 71.8012C7.17686 72.3513 7.15161 72.8764 7.15161 73.4015C7.15161 74.4016 7.15161 74.4016 8.18774 74.4016H72.8374C73.0142 74.4016 73.1659 74.3767 73.3429 74.4016C73.7219 74.4267 73.8989 74.2767 73.8989 73.8766C73.8735 73.3015 73.8989 72.7513 73.8989 72.2011C73.8989 71.2508 73.8989 71.251 72.9385 71.251H40.5125V71.2759Z" fill="black"/>
<path d="M63.3539 52.1711C63.3539 55.5299 63.3048 58.9142 63.3783 62.273C63.4029 63.7743 62.4465 64.2577 61.2693 63.7743C59.2092 62.8836 57.1248 62.0693 55.0402 61.2042C54.1082 60.8226 53.9121 60.5173 53.9121 59.4231C53.9121 53.647 53.9121 47.8963 53.9121 42.1202C53.9121 40.8225 54.3045 40.3899 55.5308 40.3645C57.6398 40.3135 59.7488 40.2881 61.8333 40.2881C62.8878 40.2881 63.3292 40.7461 63.3292 41.8403C63.3539 45.3008 63.3539 48.736 63.3539 52.1711ZM55.9476 42.4765V43.4179C55.9476 48.4051 55.9721 53.3925 55.923 58.3798C55.923 59.0924 56.1193 59.4231 56.7568 59.6522C58.2529 60.212 59.7243 60.848 61.2693 61.4841V42.4765H55.9476Z" fill="black"/>
<path d="M63.3524 27.6937C63.3524 30.8552 63.3524 33.9926 63.3524 37.1542C63.3524 38.3517 62.9602 38.711 61.7586 38.711C59.6989 38.711 57.6391 38.711 55.5795 38.687C54.378 38.687 53.9121 38.232 53.9121 37.0822C53.9121 31.909 53.9121 26.7117 53.9121 21.5383C53.9121 20.7719 54.2064 20.2929 54.9175 19.9577C57.0262 18.9517 59.1349 17.9457 61.2191 16.8679C62.4697 16.2213 63.426 16.9159 63.377 18.1852C63.3034 21.3467 63.3524 24.5083 63.3524 27.6937ZM61.2682 19.0954C60.9985 19.2152 60.8023 19.2869 60.6061 19.3827C59.233 20.0534 57.8845 20.748 56.4867 21.3707C56.0454 21.5623 55.8982 21.8257 55.8982 22.2808C55.9228 26.8554 55.8982 31.4538 55.8982 36.0284V36.6752H61.2437V19.0954H61.2682Z" fill="black"/>
<path d="M17.6726 52.1345C17.6726 48.7462 17.6726 45.3324 17.6726 41.9441C17.6726 40.6958 18.0894 40.2881 19.291 40.2881C21.3756 40.3135 23.4602 40.339 25.5201 40.3645C26.6973 40.39 27.0897 40.8231 27.0897 41.9949C27.0897 47.8291 27.0897 53.6886 27.0897 59.5226C27.0897 60.3634 26.7464 60.8729 25.986 61.1787C23.877 62.0193 21.768 62.8855 19.6834 63.7771C18.6288 64.2358 17.5989 63.8281 17.6235 62.2995C17.7215 58.9112 17.6726 55.523 17.6726 52.1345ZM19.7816 42.479V61.4843C21.3756 60.8219 22.8961 60.1596 24.4166 59.5736C24.9316 59.3697 25.1033 59.1405 25.1033 58.5545C25.0786 53.4594 25.0786 48.3385 25.0786 43.2179C25.0786 42.9886 25.0542 42.7594 25.0542 42.4536H19.7816V42.479Z" fill="black"/>
<path d="M17.648 27.5847C17.648 24.4501 17.6969 21.2915 17.6235 18.1331C17.5991 16.9367 18.5285 16.219 19.7761 16.8649C21.8796 17.9417 24.0077 18.9466 26.1358 19.9757C26.7962 20.2866 27.0897 20.7412 27.0897 21.4591C27.0897 26.6754 27.0897 31.9155 27.0897 37.1318C27.0897 38.2564 26.6249 38.687 25.4509 38.687C23.3717 38.711 21.2926 38.711 19.2134 38.711C18.0883 38.711 17.6724 38.3281 17.6724 37.2274C17.648 34.0212 17.648 30.7909 17.648 27.5847ZM24.9616 36.6771C25.0105 36.5815 25.035 36.5335 25.035 36.4857C25.035 31.6762 25.0594 26.8428 25.035 22.0334C25.035 21.842 24.7904 21.5549 24.5948 21.4591C23.2249 20.7652 21.8307 20.0953 20.4365 19.4253C20.2163 19.3296 19.9962 19.2338 19.7272 19.1142V36.7011H24.9616V36.6771Z" fill="black"/>
</svg>
